<svg width="191" height="175" viewBox="0 0 191 175" fill="none" xmlns="http://www.w3.org/2000/svg">
<path fill-rule="evenodd" clip-rule="evenodd" d="M136.152 41.4C136.152 63.8504 117.952 82.05 95.5019 82.05C73.0515 82.05 54.8519 63.8504 54.8519 41.4C54.8519 18.9496 73.0515 0.75 95.5019 0.75C117.952 0.75 136.152 18.9496 136.152 41.4ZM122.602 41.4C122.602 56.3669 110.469 68.5 95.5019 68.5C80.535 68.5 68.4019 56.3669 68.4019 41.4C68.4019 26.4331 80.535 14.3 95.5019 14.3C110.469 14.3 122.602 26.4331 122.602 41.4Z" fill="#CD6700"/>
<path d="M95.5019 102.375C51.638 102.375 14.2647 128.312 0.0283203 164.651C3.49641 168.095 7.14978 171.352 10.9722 174.407C21.5733 141.045 54.8297 115.925 95.5019 115.925C136.174 115.925 169.431 141.045 180.032 174.407C183.854 171.352 187.507 168.095 190.976 164.651C176.739 128.313 139.366 102.375 95.5019 102.375Z" fill="#CD6700"/>
</svg>
